<?xml version="1.0" encoding="utf-8"?>
<svg version="1.0" id="Слой_1" xmlns="http://www.w3.org/2000/svg" xmlns:xlink="http://www.w3.org/1999/xlink" x="0px" y="0px"
	 width="600px" height="400px" viewBox="0 0 841.89 595.28" enable-background="new 0 0 841.89 595.28" xml:space="preserve">
<g>
	<path fill="#EA7624" d="M317.976,310.242c12.483,2.091,36.399,5.306,65.585,5.962c29.167,0.784,63.567-1.058,95.895-6.071
		c32.449-4.954,62.887-13.146,84.366-22.136c21.771-8.515,33.944-18.969,33.896-19.042c0.14,0.073-12.508,12.149-35.562,22.555
		c-22.828,10.751-55.016,21.047-88.839,27.72c-33.877,6.844-69.401,9.956-98.247,10.169c-28.912,0.334-51.327-2.413-59.234-3.623
		c-27.095-4.297-46.877-11.772-58.912-18.944c-12.247-7.257-16.197-13.814-14.976-15.121c1.294-1.495,7.409,1.592,19.643,5.524
		C273.924,301.253,292.558,306.334,317.976,310.242"/>
	<polygon fill="white" points="447.937,218.589 466.655,179.813 466.996,179.813 487.618,218.589 508.902,218.589
		481.406,168.502 463.531,168.502 438.765,218.589 	"/>
	<path fill="white" d="M154.356,196.758l29.301-0.407c-0.334,7.014-4.09,10.977-6.071,12.581
		c-4.869,3.896-11.736,4.254-15.037,4.254c-4.893,0-9.086-0.717-13.341-3.331c-2.717-1.556-5.829-4.425-7.396-6.71l-1.368-2.127
		l-9.511,5.622c2.753,3.336,7.171,6.612,11.736,8.977c7.099,3.574,13.62,4.479,21.485,4.479c8.406,0,21.509-1.246,30.984-8.503
		c6.57-4.953,9.573-11.888,9.573-18.008c0-6.047-3.002-13.073-9.573-18.027c-8.193-6.235-20.117-8.503-30.759-8.503
		c-6.832,0-13.183,0.724-19.619,3.215c-5.349,1.878-9.53,4.564-13.827,8.327l9.511,5.488l2.376-2.517
		c1.817-2.151,5.039-4.23,7.944-5.373c3.853-1.793,7.925-2.292,12.107-2.292c8.466,0,13.292,2.839,16.045,5.513
		c1.793,1.72,4.194,4.996,4.741,10.071l-29.301-0.383V196.758z"/>
	<path fill="white" d="M542.591,220.09c8.929,0,21.34-2.109,29.587-8.491c6.601-4.965,9.712-12.003,9.712-18.014
		c0-5.962-3.111-13.067-9.712-18.021c-8.247-6.339-20.658-8.503-29.587-8.503c-8.813,0-21.32,2.164-29.72,8.503
		c-6.601,4.953-9.597,12.058-9.597,18.021c0,6.011,2.996,13.049,9.597,18.014C521.271,217.981,533.778,220.09,542.591,220.09
		 M542.591,173.17c4.747,0,10.211,1.052,14.356,6.588c3.458,4.321,3.993,9.409,3.993,13.827s-0.535,9.439-3.993,13.845
		c-4.146,5.488-9.609,6.497-14.356,6.497c-4.776,0-10.229-1.009-14.41-6.497c-3.324-4.406-3.975-9.427-3.975-13.845
		s0.65-9.506,3.975-13.827C532.362,174.222,537.814,173.17,542.591,173.17"/>
	<path fill="white" d="M416.946,181.138c1.647,0.547,3.154,1.246,4.297,2.279c2.231,1.824,4.06,4.851,4.06,9.755
		c0,4.966-1.829,8.005-4.06,9.858c-1.143,1.033-2.65,1.732-4.297,2.267c-1.866,0.571-3.932,0.96-6.2,0.96h-2.066v-26.08h2.066
		C413.014,180.178,415.08,180.512,416.946,181.138 M416.946,212.591c10.642-0.699,16.258-3.337,19.194-5.215
		c5.579-3.574,8.132-8.691,8.132-14.204c0-7.317-4.547-11.748-8.132-14.112c-5.026-3.361-12.071-4.832-19.194-5.282
		c-1.866-0.122-3.805-0.122-5.61-0.122h-2.091v-6.886h-19.023v6.886h-1.975c-1.884,0-3.799,0-5.665,0.122
		c-7.172,0.45-14.24,1.92-19.206,5.282c-3.598,2.364-8.145,6.795-8.145,14.112c0,5.513,2.577,10.63,8.145,14.204
		c2.923,1.878,8.515,4.516,19.206,5.215c1.732,0.024,3.574,0.146,5.665,0.146h1.975v7.36h19.023v-7.36h2.091
		C413.378,212.736,415.22,212.615,416.946,212.591 M382.582,181.138c1.793-0.626,3.957-0.96,6.072-0.96h2.243v26.08h-2.243
		c-2.115,0-4.279-0.389-6.072-0.96c-1.617-0.535-3.1-1.234-4.285-2.267c-2.152-1.854-4.066-4.893-4.066-9.858
		c0-4.904,1.914-7.931,4.066-9.755C379.482,182.384,380.965,181.685,382.582,181.138"/>
	<path fill="white" d="M311.855,220.09c8.825,0,21.285-2.109,29.538-8.491c6.546-4.965,9.584-12.003,9.584-18.014
		c0-5.962-3.039-13.067-9.584-18.021c-8.253-6.339-20.713-8.503-29.538-8.503c-8.94,0-21.4,2.164-29.678,8.503
		c-6.631,4.953-9.706,12.058-9.706,18.021c0,6.011,3.075,13.049,9.706,18.014C290.455,217.981,302.915,220.09,311.855,220.09
		 M311.855,173.17c4.68,0,10.18,1.052,14.374,6.588c3.349,4.321,3.975,9.409,3.975,13.827s-0.626,9.439-3.975,13.845
		c-4.194,5.488-9.694,6.497-14.374,6.497c-4.795,0-10.356-1.009-14.514-6.497c-3.336-4.406-3.811-9.427-3.811-13.845
		s0.474-9.506,3.811-13.827C301.499,174.222,307.06,173.17,311.855,173.17"/>
	<path fill="white" d="M240.089,176.197c2.352,0.091,5.251,0.535,7.421,1.896c2.887,1.915,3.307,4.479,3.307,6.096
		c0,1.58-0.359,4.37-3.495,6.351c-2.091,1.519-4.74,1.926-7.232,2.127h-1.945h-8.861v-16.58h8.861L240.089,176.197z M240.089,200.21
		h3.562c9.123,0,15.504-1.045,20.026-3.859c5.604-3.549,6.91-8.448,6.91-12.271c0-3.774-1.307-8.563-6.91-12.016
		c-4.522-2.686-10.654-3.568-20.877-3.568h-2.711h-29.763v50.087h18.957V200.21H240.089z"/>
	<path fill="white" d="M106.33,204.197l8.15,14.386h21.211l-28.742-50.087H89.251l-26.073,50.087h9.42l7.469-14.386H106.33z
		 M93.013,180.245l9.481,17.115H83.526l8.965-17.449h0.31L93.013,180.245z"/>
	<polygon fill="white" points="578.924,176.087 599.303,176.087 599.303,218.595 618.296,218.595 618.296,176.087
		638.809,176.087 638.809,168.49 578.924,168.49 	"/>
	<path fill="white" d="M104.658,260.97l-0.596-1.775l-30.583,1.775l6.199,3.215L104.658,260.97z M108.84,266.725l-0.754-0.602
		l-1.294-1.532l-15.34,3.1l6.527,2.292L108.84,266.725z M120.953,265.431c0.723-0.128,1.805-0.547,2.717-1.246l-4.498-9.335
		l4.631-2.315l-3.872-3.538l-1.617,0.748l-6.661,3.19l1.957,4.741l3.172-1.532L120.953,265.431z M128.495,245.963
		c1.72,2.188,2.942,4.79,3.646,7.84h-2.875c-0.17-0.924-0.383-1.756-0.772-2.625c-1.902-5.215-5.737-8.989-10.18-12.064
		l-1.629-1.118l1.629,0.632C122.387,240.36,125.967,242.724,128.495,245.963 M128.495,274.195l0.833,1.653l-0.833,0.486
		l-2.249,1.058l-2.577-5.464c-1.659,0.608-3.477,0.954-5.354,1.009c-1.915,0.085-3.896-0.164-5.701-0.796l-2.206,5.251l-2.322-0.462
		l-0.772-1.082l0.772-1.355l1.866-3.61l-1.647-1.246l1.581-2.018c2.68,1.793,5.665,2.699,8.43,2.699
		c2.911,0.091,5.774-0.882,8.454-2.833l1.726,0.456l0.723,0.329l-0.723,0.595l-1.793,1.593L128.495,274.195z M165.065,260.101
		l8.065-5.428h-43.803c0,1.957-0.231,3.671-0.833,5.081c-1.665,4.607-5.883,6.734-10.18,6.734
		c-4.121-0.176-8.363-2.431-10.229-6.625c-0.662-1.495-1.051-3.124-1.051-5.19H63.171l7.992,5.428l33.495-1.757
		c0.675,2.468,1.842,4.692,3.428,6.315c2.662,2.96,6.455,4.68,10.229,4.68c3.787,0.073,7.555-1.41,10.18-4.583
		c1.507-1.641,2.528-3.786,3.203-6.363L165.065,260.101z M162.774,260.97l-6.145,3.087l-24.785-3.087l0.626-1.775L162.774,260.97z
		 M144.954,267.746l-6.771,2.328l-9.688-3.076l-0.833-0.273l0.833-0.851l1.125-1.215L144.954,267.746z M148.139,267.345l5.488-2.687
		l-22.306-2.814l-1.191,1.994L148.139,267.345z M88.09,267.345l-5.409-2.461l22.378-2.979l1.27,1.933L88.09,267.345z"/>
	<path fill="white" d="M229.398,258.405h5.403c1.769,0,3.215-0.632,4.084-1.271c1.209-0.997,2.376-2.802,2.474-4.37
		c0.2-1.544-0.371-2.31-0.583-2.602c-0.657-0.681-1.854-1.045-3.1-1.045h-5.428L229.398,258.405z M238.15,246.03
		c1.519,0,4.285,0.079,6.023,1.823c1.1,1.265,1.361,2.833,1.1,4.352c-0.328,2.638-1.769,5.318-4.012,6.983
		c-1.793,1.343-4.528,2.304-7.354,2.304h-5.476l-3.646,11.876h-3.586l8.363-27.338H238.15z"/>
	<path fill="white" d="M258.365,262.987c0.511-1.495,1.137-3.872,0.34-5.215c-0.45-0.771-1.446-1.294-2.765-1.294
		c-1.44,0-2.766,0.723-3.683,1.592c-1.435,1.282-2.152,3.276-2.687,4.917l-0.565,1.678c-0.443,1.458-1.191,3.774-0.298,5.306
		c0.298,0.498,1.125,1.258,2.692,1.258c1.429,0,2.589-0.535,3.543-1.258c1.72-1.483,2.316-3.489,2.942-5.306L258.365,262.987z
		 M261.805,256.436c0.62,1.076,0.82,2.565,0.596,4.534c-0.383,2.947-1.915,7.566-5.178,10.283c-1.969,1.617-4.309,2.486-6.546,2.486
		c-3.464,0-4.771-1.915-5.117-2.486c-0.881-1.434-0.724-3.148-0.645-4.382c0.395-3.161,1.939-7.683,5.227-10.436
		c1.915-1.592,4.358-2.425,6.594-2.425C259.386,254.011,261.106,255.135,261.805,256.436"/>
	<path fill="white" d="M278.257,271.824c-0.62,0.316-1.58,0.814-2.486,1.112c-1.313,0.486-2.753,0.796-4.449,0.796
		c-2.225,0-3.933-0.796-4.802-1.909c-0.887-1.215-1.209-3.331-0.972-4.911c0.425-3.44,2.4-8.892,6.175-11.329
		c1.769-1.07,4.036-1.568,5.786-1.568c1.197,0,2.753,0.31,3.701,0.948c0.966,0.729,1.343,1.665,1.191,2.911l-0.723,2.225
		l-3.173,0.328c0.486-1.125,0.809-2.292,0.322-2.979c-0.273-0.547-1.058-0.972-2.413-0.972c-0.869,0-1.817,0.152-2.698,0.772
		c-2.133,1.209-2.875,3.251-3.44,5.19l-0.772,2.516c-0.547,1.532-0.742,3.313-0.207,4.443c0.371,0.638,1.203,1.592,3.331,1.592
		c1.088,0,1.848-0.158,2.966-0.535l2.389-0.881L278.257,271.824z"/>
	<path fill="white" d="M297.244,271.824c-0.632,0.316-1.653,0.814-2.553,1.112c-1.367,0.486-2.784,0.796-4.455,0.796
		c-2.236,0-3.908-0.796-4.801-1.909c-0.972-1.215-1.222-3.331-1.021-4.911c0.395-3.44,2.486-8.892,6.199-11.329
		c1.689-1.07,4.018-1.568,5.75-1.568c1.271,0,2.79,0.31,3.744,0.948c0.997,0.729,1.331,1.665,1.161,2.911l-0.699,2.225l-3.185,0.328
		c0.523-1.125,0.821-2.292,0.334-2.979c-0.201-0.547-1.082-0.972-2.413-0.972c-0.875,0-1.769,0.152-2.692,0.772
		c-2.127,1.209-2.826,3.251-3.519,5.19l-0.711,2.516c-0.535,1.532-0.735,3.313-0.152,4.443c0.389,0.638,1.136,1.592,3.325,1.592
		c1.057,0,1.841-0.158,2.887-0.535c0.936-0.213,1.61-0.468,2.382-0.881L297.244,271.824z"/>
	<polygon fill="white" points="317.799,273.368 314.535,273.368 319.118,258.508 305.936,273.368 302.052,273.368 307.88,254.327
		311.192,254.327 306.646,269.174 319.793,254.327 323.64,254.327 	"/>
	<path fill="white" d="M345.988,246.371l-0.273,1.185c-0.371,1.094-0.906,2.194-2.577,3.088c-1.258,0.583-2.4,0.857-3.598,0.857
		c-0.856,0-2.236-0.024-3.124-0.857c-0.407-0.359-1.033-1.082-0.918-2.279l0.772-1.994h2.51l-0.097,0.462l0.085,1.732l1.495,0.559
		l1.805-0.559l1.222-1.708l0.109-0.486H345.988z M340.633,273.368h-3.258l4.583-14.86l-13.207,14.86h-3.835l5.823-19.042h3.239
		l-4.534,14.848l13.134-14.848h3.859L340.633,273.368z"/>
	<path fill="white" d="M361.225,271.824c-0.656,0.316-1.653,0.814-2.589,1.112c-1.307,0.486-2.784,0.796-4.467,0.796
		c-2.176,0-3.908-0.796-4.801-1.909c-0.888-1.215-1.173-3.331-0.96-4.911c0.438-3.44,2.449-8.892,6.199-11.329
		c1.69-1.07,3.981-1.568,5.713-1.568c1.246,0,2.814,0.31,3.792,0.948c0.912,0.729,1.325,1.665,1.161,2.911l-0.784,2.225
		l-3.063,0.328c0.45-1.125,0.76-2.292,0.25-2.979c-0.25-0.547-1.009-0.972-2.401-0.972c-0.9,0-1.805,0.152-2.705,0.772
		c-2.066,1.209-2.863,3.251-3.482,5.19l-0.772,2.516c-0.474,1.532-0.675,3.313-0.152,4.443c0.401,0.638,1.209,1.592,3.349,1.592
		c1.058,0,1.817-0.158,2.966-0.535l2.401-0.881L361.225,271.824z"/>
	<path fill="white" d="M377.933,273.368l-0.833-6.023l-0.759-2.127l-1.745-0.559h-2.625l-2.638,8.709h-3.325l5.871-19.042h3.252
		l-2.316,7.579h2.316l2.352-0.656l1.483-1.866l1.355-2.097c0.808-1.215,1.428-2.437,3.002-2.984l1.538-0.286l1.623,0.286
		l-1.136,2.492l-1.453,0.213l-1.1,1.355l-1.045,1.629c-0.468,0.771-0.784,1.507-1.763,2.164l-1.841,0.96l-0.079,0.164l1.647,1.069
		l0.742,1.915l0.96,7.105H377.933z"/>
	<polygon fill="white" points="401.436,273.368 398.135,273.368 402.73,258.508 389.56,273.368 385.73,273.368 391.528,254.327
		394.762,254.327 390.222,269.174 403.429,254.327 407.3,254.327 	"/>
	<path fill="white" d="M421.917,262.155l0.116-0.772c0.37-1.282,0.783-2.668,0.188-3.713c-0.449-1.033-1.446-1.191-2.121-1.191
		c-1.343,0-2.413,0.432-3.361,1.294c-0.881,0.821-1.805,2.115-2.401,3.92l-0.109,0.462H421.917z M413.317,265.212
		c-0.371,1.27-0.735,3.087-0.085,4.2c0.51,0.93,1.854,1.58,3.622,1.58c1.13,0,1.976-0.188,2.899-0.523l2.364-0.899l0.376,2.255
		c-0.65,0.31-1.659,0.821-2.528,1.106c-1.41,0.486-2.887,0.808-4.443,0.808c-3.452,0-4.965-1.726-5.506-2.747
		c-1.763-3.215,0.401-10.995,4.382-14.514c1.841-1.635,4.096-2.467,6.302-2.467c2.589,0,3.969,1.185,4.588,2.23
		c1.137,2.103,0.377,4.729-0.51,7.555l-0.286,0.856h-11.086L413.317,265.212z"/>
	<path fill="white" d="M459.053,264.507h-2.899c-1.866,0-3.112,0.377-4.084,0.948c-1.095,0.796-1.72,2.03-1.891,3.124l0.383,1.744
		l2.194,0.845c1.154,0,1.914-0.249,2.96-0.918l2.103-1.671L459.053,264.507z M457.399,270.998h-0.177
		c-0.687,0.668-1.507,1.355-2.553,1.938c-1.166,0.596-2.103,0.796-3.458,0.796c-1.112,0-2.479-0.109-3.488-0.96
		c-0.656-0.632-1.429-1.677-1.131-3.434c0.201-1.793,1.131-4.03,3.507-5.598c1.246-0.803,3.301-1.581,6.85-1.581h2.826l0.809-2.407
		c0.146-0.559,0.535-1.878-0.426-2.625c-0.273-0.261-0.917-0.657-2.291-0.657c-0.681,0-1.866,0.085-2.838,0.657
		c-0.846,0.413-1.252,1.07-1.666,2.23l-2.959-0.164c0.133-1.434,0.941-2.948,2.661-4.005c1.927-1.1,4.595-1.173,5.737-1.173
		c1.994,0,3.981,0.474,4.832,1.684c0.371,0.632,0.547,1.489,0.432,2.759c-0.134,0.924-0.383,1.647-0.723,2.589l-3.744,12.326h-2.973
		L457.399,270.998z"/>
	<path fill="white" d="M472.484,262.422h4.169c0.632,0,1.714-0.146,2.65-0.76c0.899-0.692,1.435-1.665,1.604-2.759l-0.669-1.581
		l-1.769-0.45h-4.321L472.484,262.422z M469.896,270.84h4.369c1.295,0,2.152-0.389,2.796-0.796c0.961-0.638,1.495-1.744,1.696-3.002
		l-0.608-1.616l-1.805-0.535h-4.619L469.896,270.84z M471.676,254.333h8.224c1.435,0,2.838,0.176,3.822,1.447
		c0.426,0.547,0.663,1.416,0.511,2.625c-0.085,1.24-0.711,2.425-1.678,3.446c-0.96,0.869-1.871,1.258-2.553,1.435v0.085
		c1.033,0.262,1.593,0.906,1.757,1.282c0.273,0.56,0.56,1.216,0.432,2.249c-0.158,1.289-0.845,3.239-2.947,4.844
		c-1.757,1.271-3.386,1.635-5.282,1.635h-8.053L471.676,254.333z"/>
	<polygon fill="white" points="501.555,273.368 498.254,273.368 502.873,258.508 489.781,273.368 485.946,273.368
		491.745,254.327 495.021,254.327 490.511,269.174 503.535,254.327 507.353,254.327 	"/>
	<path fill="white" d="M520.967,264.507h-2.948c-1.848,0-3.1,0.377-3.999,0.948c-1.143,0.796-1.842,2.03-1.963,3.124l0.419,1.744
		l2.194,0.845c1.167,0,1.866-0.249,2.973-0.918l2.066-1.671L520.967,264.507z M519.35,270.998h-0.176
		c-0.724,0.668-1.531,1.355-2.638,1.938c-1.173,0.596-2.019,0.796-3.337,0.796c-1.222,0-2.553-0.109-3.55-0.96
		c-0.692-0.632-1.379-1.677-1.13-3.434c0.225-1.793,1.13-4.03,3.458-5.598c1.331-0.803,3.324-1.581,6.898-1.581h2.802l0.784-2.407
		c0.17-0.559,0.559-1.878-0.365-2.625c-0.334-0.261-0.881-0.657-2.278-0.657c-0.729,0-1.902,0.085-2.863,0.657
		c-0.881,0.413-1.295,1.07-1.726,2.23l-2.851-0.164c0.072-1.434,0.881-2.948,2.625-4.005c1.939-1.1,4.596-1.173,5.738-1.173
		c1.89,0,3.896,0.474,4.752,1.684c0.353,0.632,0.565,1.489,0.45,2.759c-0.146,0.924-0.371,1.647-0.699,2.589l-3.769,12.326h-2.898
		L519.35,270.998z"/>
	<path fill="white" d="M540.36,273.368h-3.257l5.014-16.24h-5.239l-0.638,2.066c-0.833,2.492-1.744,4.99-2.699,7.415
		c-0.875,1.97-1.908,4.225-4.145,5.744c-1.258,0.869-2.826,1.294-4.097,1.489v-2.747c0.882-0.176,2.091-0.687,2.936-1.271
		c1.344-0.96,2.104-2.479,2.613-3.872c0.797-1.878,2.353-6.078,3.027-8.454l1.069-3.172h11.214L540.36,273.368z"/>
	<polygon fill="white" points="562.545,273.368 559.305,273.368 563.827,258.508 550.729,273.368 546.931,273.368
		552.711,254.327 555.944,254.327 551.44,269.174 564.508,254.327 568.343,254.327 	"/>
	<polygon fill="white" points="583.677,273.368 580.492,273.368 583.045,264.756 574.955,264.756 572.275,273.368
		569.054,273.368 574.9,254.327 578.104,254.327 575.764,262.021 583.901,262.021 586.254,254.327 589.438,254.327 	"/>
	<polygon fill="white" points="605.867,273.368 602.634,273.368 607.161,258.508 594.058,273.368 590.283,273.368
		596.033,254.327 599.26,254.327 594.751,269.174 607.775,254.327 611.646,254.327 	"/>
	<g>
		<path fill="#010101" d="M727.981,168.065c-0.937,1.222-8.156,11.177-8.156,11.177s-3.039,4.145-3.465,4.741
			c-25.022,3.027-51.466,16.781-80.312,41.682C654.264,205.005,681.298,176.932,727.981,168.065 M771.066,142.964
			c9.913-1.265,20.543-3.191,31.514-11.499c-3.872,5.542-8.734,12.459-8.734,12.459c-9.693,14.07-16.646,15.243-23.351,16.155
			l-14.027,1.033l-12.149,0.814c-5.075,0.638-8.837,1.75-12.144,3.519c4.528-6.09,10.605-13.359,15.948-16.927
			c5.567-3.731,12.016-4.376,16.318-4.734l2.504-0.273L771.066,142.964z M770.799,140.854l-4.163,0.584l-2.334,0.225
			c-4.467,0.407-11.335,1.015-17.249,5.051c-5.974,4.017-12.751,12.326-17.516,18.731c-51.539,9.159-79.801,41.329-98.526,62.692
			l-11.694,14.368l1.981-0.589c35.166-34.157,66.406-52.451,95.798-55.903l0.371-0.024l3.969-5.482l8.175-11.256
			c3.385-3.228,8.047-4.346,14.933-5.166l11.967-0.814l14.289-1.07c6.631-0.917,14.465-2.243,24.725-17.012l12.994-18.58
			l-1.556-1.367C795.122,137.603,782.827,139.323,770.799,140.854"/>
		<g>
			<defs>
				<path id="SVGID_1_" d="M620.617,241.211l-7.67,8.333c38.479-29.501,60.535-32.03,92.218-31.677
					c2.924,0.182,5.726,0.353,7.543-3.659l9.463-13.656C677.949,201.019,657.904,212.396,620.617,241.211"/>
			</defs>
			<clipPath id="SVGID_2_">
				<use xlink:href="#SVGID_1_"  overflow="visible"/>
			</clipPath>

				<linearGradient id="SVGID_3_" gradientUnits="userSpaceOnUse" x1="-84.5396" y1="768.9238" x2="-72.551" y2="768.9238" gradientTransform="matrix(4.1902 3.9074 3.9074 -4.1902 -2009.6055 3752.252)">
				<stop  offset="0" style="stop-color:#C02026"/>
				<stop  offset="0.0464" style="stop-color:#C52026"/>
				<stop  offset="0.3" style="stop-color:#E21F26"/>
				<stop  offset="0.3919" style="stop-color:#EA705E"/>
				<stop  offset="0.5" style="stop-color:#F4B4B3"/>
				<stop  offset="0.6184" style="stop-color:#EA705E"/>
				<stop  offset="0.7191" style="stop-color:#E21F26"/>
				<stop  offset="0.9566" style="stop-color:#C52026"/>
				<stop  offset="1" style="stop-color:#C02026"/>
			</linearGradient>
			<polygon clip-path="url(#SVGID_2_)" fill="url(#SVGID_3_)" points="663.745,143.067 745.346,223.336 671.367,307.015
				589.773,226.758 			"/>
		</g>
		<g>
			<defs>
				<path id="SVGID_4_" d="M620.569,241.144c37.561-36.521,68.86-52.949,96.387-56.183c2.438-3.397,10.77-14.763,13.426-18.574
					l-0.012-0.012C667.574,177.175,639.908,221.993,620.569,241.144"/>
			</defs>
			<clipPath id="SVGID_5_">
				<use xlink:href="#SVGID_4_"  overflow="visible"/>
			</clipPath>

				<linearGradient id="SVGID_6_" gradientUnits="userSpaceOnUse" x1="-111.6519" y1="745.4043" x2="-99.7787" y2="745.4043" gradientTransform="matrix(7.0873 4.9626 4.9626 -7.0873 -2266.7031 6016.6758)">
				<stop  offset="0" style="stop-color:#FFFFFF"/>
				<stop  offset="0.3427" style="stop-color:#FFFFFF"/>
				<stop  offset="0.55" style="stop-color:#FFFFFF"/>
				<stop  offset="0.9101" style="stop-color:#D4DBEC"/>
				<stop  offset="1" style="stop-color:#D4DBEC"/>
			</linearGradient>
			<polygon clip-path="url(#SVGID_5_)" fill="url(#SVGID_6_)" points="656.701,111.943 763.682,190.972 694.256,295.564
				587.269,216.541 			"/>
		</g>
		<g>
			<defs>
				<path id="SVGID_7_" d="M622.544,239.011c-0.802,0.778-3.379,3.726-4.09,4.406c22.007-17.115,40.472-34.935,86.358-41.536
					c2.273-2.698,8.904-11.961,12.089-16.89l-0.012-0.03C675.02,191.033,647.676,215.623,622.544,239.011"/>
			</defs>
			<clipPath id="SVGID_8_">
				<use xlink:href="#SVGID_7_"  overflow="visible"/>
			</clipPath>

				<linearGradient id="SVGID_9_" gradientUnits="userSpaceOnUse" x1="-24.272" y1="803.3711" x2="-12.2804" y2="803.3711" gradientTransform="matrix(2.5449 2.3732 2.3732 -2.5449 -1190.0859 2304.2031)">
				<stop  offset="0" style="stop-color:#0A4E92"/>
				<stop  offset="0.1067" style="stop-color:#0A4E92"/>
				<stop  offset="0.1941" style="stop-color:#2D5A9B"/>
				<stop  offset="0.3786" style="stop-color:#657DB4"/>
				<stop  offset="0.5" style="stop-color:#889DCB"/>
				<stop  offset="0.5146" style="stop-color:#8399C8"/>
				<stop  offset="0.6651" style="stop-color:#5974AD"/>
				<stop  offset="0.7949" style="stop-color:#355F9E"/>
				<stop  offset="0.8977" style="stop-color:#185295"/>
				<stop  offset="0.9607" style="stop-color:#0A4E92"/>
				<stop  offset="1" style="stop-color:#0A4E92"/>
			</linearGradient>
			<polygon clip-path="url(#SVGID_8_)" fill="url(#SVGID_9_)" points="664.244,133.167 744.543,212.153 671.111,295.224
				590.818,216.231 			"/>
		</g>
		<g>
			<defs>
				<path id="SVGID_10_" d="M702.437,204.799c-1.216,3.452,0.662,2.03,6.096,5.439c4.692,2.924,3.671,4.005,3.264,5.543
					c4.267-6.442,11.852-15.741,11.852-15.741c-1.829-0.656-3.822-0.948-5.816-0.948
					C710.538,199.092,703.099,202.763,702.437,204.799"/>
			</defs>
			<clipPath id="SVGID_11_">
				<use xlink:href="#SVGID_10_"  overflow="visible"/>
			</clipPath>

				<linearGradient id="SVGID_12_" gradientUnits="userSpaceOnUse" x1="35.9131" y1="792.9033" x2="47.7363" y2="792.9033" gradientTransform="matrix(2.4071 1.5041 1.5041 -2.4071 -582.8906 2051.8301)">
				<stop  offset="0" style="stop-color:#C02026"/>
				<stop  offset="0.0773" style="stop-color:#C52026"/>
				<stop  offset="0.5" style="stop-color:#E21F26"/>
				<stop  offset="0.7298" style="stop-color:#EA705E"/>
				<stop  offset="1" style="stop-color:#F4B4B3"/>
			</linearGradient>
			<polygon clip-path="url(#SVGID_11_)" fill="url(#SVGID_12_)" points="707.523,188.456 730.765,203.784 717.357,226.43
				694.116,211.102 			"/>
		</g>
		<g>
			<defs>
				<path id="SVGID_13_" d="M744.811,162.09c-8.569,1.204-14.003,3.452-17.425,8.041l-11.979,16.92
					c2.613-2.431,10.49-3.665,19.042-3.877h1.239h1.016c1.215,0,2.54-0.128,3.811-0.128c12.191-0.504,29.094-2.31,38.916-14.41
					l14.72-21.509l1.793-2.577C783.155,162.315,753.909,160.796,744.811,162.09"/>
			</defs>
			<clipPath id="SVGID_14_">
				<use xlink:href="#SVGID_13_"  overflow="visible"/>
			</clipPath>

				<linearGradient id="SVGID_15_" gradientUnits="userSpaceOnUse" x1="-71.5679" y1="778.5137" x2="-59.6573" y2="778.5137" gradientTransform="matrix(4.3638 3.4217 3.4217 -4.3638 -1621.5039 3787.8457)">
				<stop  offset="0" style="stop-color:#D5DEEF"/>
				<stop  offset="0.073" style="stop-color:#D5DEEF"/>
				<stop  offset="0.2236" style="stop-color:#7687B8"/>
				<stop  offset="0.3708" style="stop-color:#0A4E92"/>
				<stop  offset="0.4289" style="stop-color:#155194"/>
				<stop  offset="0.5101" style="stop-color:#2D5A99"/>
				<stop  offset="0.6049" style="stop-color:#4A68A3"/>
				<stop  offset="0.71" style="stop-color:#6C7FB2"/>
				<stop  offset="0.8237" style="stop-color:#95A3CA"/>
				<stop  offset="0.9427" style="stop-color:#D1DAEC"/>
				<stop  offset="0.9494" style="stop-color:#D5DEEF"/>
				<stop  offset="1" style="stop-color:#D5DEEF"/>
			</linearGradient>
			<polygon clip-path="url(#SVGID_14_)" fill="url(#SVGID_15_)" points="746.068,103.276 815.507,160.723 765.28,228.308
				695.824,170.867 			"/>
		</g>
		<g>
			<defs>
				<path id="SVGID_16_" d="M766.818,142.453c-3.763,0.511-12.198,0.438-19.255,5.215c-7.05,4.637-15.511,15.972-19.691,21.85
					c3.865-4.376,8.982-5.659,16.58-6.516c7.53-0.942,18.494-0.723,26.183-1.89c7.5-0.991,14.404-2.613,24.014-16.562l13.043-18.567
					C794.149,140.131,779.43,140.727,766.818,142.453"/>
			</defs>
			<clipPath id="SVGID_17_">
				<use xlink:href="#SVGID_16_"  overflow="visible"/>
			</clipPath>

				<linearGradient id="SVGID_18_" gradientUnits="userSpaceOnUse" x1="-73.5181" y1="780.9863" x2="-61.608" y2="780.9863" gradientTransform="matrix(4.4416 3.4827 3.4827 -4.4416 -1650.793 3852.834)">
				<stop  offset="0" style="stop-color:#FFFFFF"/>
				<stop  offset="0.1742" style="stop-color:#FFFFFF"/>
				<stop  offset="0.2487" style="stop-color:#F6F7FB"/>
				<stop  offset="0.3471" style="stop-color:#E4E8F4"/>
				<stop  offset="0.3539" style="stop-color:#E3E7F3"/>
				<stop  offset="0.405" style="stop-color:#E9ECF6"/>
				<stop  offset="0.5599" style="stop-color:#F8F8FC"/>
				<stop  offset="0.7" style="stop-color:#FFFFFF"/>
				<stop  offset="1" style="stop-color:#FFFFFF"/>
			</linearGradient>
			<polygon clip-path="url(#SVGID_17_)" fill="url(#SVGID_18_)" points="758.267,85.091 827.717,142.568 777.303,210.396
				707.846,152.943 			"/>
		</g>
		<g>
			<defs>
				<path id="SVGID_19_" d="M751.879,180.938c-9.208,1.343-19.704,1.708-22.73,1.933c-5.124,0.201-12.028,1.921-13.918,4.352
					c-5.738,7.622-11.299,14.66-12.794,17.577c3.556-3.458,15.127-3.057,29.24-3.713c14.112-0.681,28.389-7.142,39.682-20.677
					l8.503-12.459C774.136,175.723,764.059,179.163,751.879,180.938"/>
			</defs>
			<clipPath id="SVGID_20_">
				<use xlink:href="#SVGID_19_"  overflow="visible"/>
			</clipPath>

				<linearGradient id="SVGID_21_" gradientUnits="userSpaceOnUse" x1="-65.6206" y1="777.3555" x2="-53.7085" y2="777.3555" gradientTransform="matrix(4.1368 3.2437 3.2437 -4.1368 -1533.8633 3595.3926)">
				<stop  offset="0" style="stop-color:#F4B4B3"/>
				<stop  offset="0.0562" style="stop-color:#F4B4B3"/>
				<stop  offset="0.0962" style="stop-color:#F4B1AF"/>
				<stop  offset="0.14" style="stop-color:#F3A8A4"/>
				<stop  offset="0.1856" style="stop-color:#F09A91"/>
				<stop  offset="0.2324" style="stop-color:#EE8879"/>
				<stop  offset="0.2802" style="stop-color:#EA705E"/>
				<stop  offset="0.328" style="stop-color:#E64F3E"/>
				<stop  offset="0.3708" style="stop-color:#E21F26"/>
				<stop  offset="0.3867" style="stop-color:#DD1F26"/>
				<stop  offset="0.5169" style="stop-color:#C02026"/>
				<stop  offset="0.7221" style="stop-color:#DD1F26"/>
				<stop  offset="0.7472" style="stop-color:#E21F26"/>
				<stop  offset="0.7726" style="stop-color:#E43D32"/>
				<stop  offset="0.8652" style="stop-color:#EC8070"/>
				<stop  offset="0.9299" style="stop-color:#F2A49F"/>
				<stop  offset="0.9607" style="stop-color:#F4B4B3"/>
				<stop  offset="1" style="stop-color:#F4B4B3"/>
			</linearGradient>
			<polygon clip-path="url(#SVGID_20_)" fill="url(#SVGID_21_)" points="731.92,128.286 796.824,181.977 750.396,244.462
				685.474,190.765 			"/>
		</g>
	</g>
	<polygon fill="white" points="628.002,273.368 624.744,273.368 629.321,258.508 616.193,273.368 612.419,273.368
		618.168,254.327 621.456,254.327 616.916,269.174 629.983,254.327 633.807,254.327 	"/>
</g>
</svg>
