<svg width="20" height="20" viewBox="0 0 20 20" fill="none" xmlns="http://www.w3.org/2000/svg">
<path d="M0 10C0 10.0881 0.0396099 10.1542 0.118837 10.2093L8.68862 17.4119C8.75464 17.467 8.83387 17.5 8.93951 17.5C9.15078 17.5 9.29603 17.3678 9.29603 17.2137C9.29603 17.1256 9.26962 17.0374 9.2036 16.9824L3.81613 12.489L1.09598 10.2533L3.7501 10.2863H19.6567C19.8415 10.2863 20 10.1652 20 10C20 9.8348 19.8415 9.70264 19.6567 9.70264H3.7501L1.09598 9.73568L3.81613 7.51101L9.2036 3.00661C9.28283 2.95154 9.29603 2.87445 9.29603 2.78634C9.29603 2.63216 9.15078 2.5 8.93951 2.5C8.83387 2.5 8.72823 2.52203 8.54337 2.68722L0.118837 9.77974C0.0396099 9.84582 0 9.91189 0 10Z" fill="#148ad1"/>
</svg>
