<?xml version="1.0" encoding="utf-8"?>
<svg version="1.1" xmlns="http://www.w3.org/2000/svg" x="0px" y="0px" viewBox="0 0 1000 1000" enable-background="new 0 0 1000 1000" xml:space="preserve">
<g><path d="M500,990C229.8,990,10,770.2,10,500C10,229.8,229.8,10,500,10c270.2,0,490,219.8,490,490C990,770.2,770.2,990,500,990 M500,48.4C251,48.4,48.4,251,48.4,500C48.4,749,251,951.6,500,951.6c249,0,451.6-202.6,451.6-451.6C951.6,251,749,48.4,500,48.4"/><path d="M365.5,629.7c-5.8,0-11.6-2.7-15.4-7.7c-6.4-8.5-9.3-20.5-0.8-26.9L471.5,500V250.2c0-10.6,8.6-19.2,19.2-19.2c10.6,0,19.2,8.6,19.2,19.2v259.4c0,6,1.8,11.7-3.1,15.4L374.7,625.9C371.3,628.4,369.5,629.7,365.5,629.7"/></g>
</svg>
